HIERARCHY
ROOT root
{
	OFFSET	0	13.1	24.9
	CHANNELS 6  Xposition Yposition Zposition Xrotation Yrotation Zrotation
	JOINT spine_1
	{
		OFFSET	0	9.99999	0
		CHANNELS 3  Xrotation Yrotation Zrotation
		JOINT spine_2
		{
			OFFSET	0	112	-10
			CHANNELS 3  Xrotation Yrotation Zrotation
			JOINT spine_3
			{
				OFFSET	0	206.5	19.3
				CHANNELS 3  Xrotation Yrotation Zrotation
				JOINT spine_4
				{
					OFFSET	0	110.4	14.6
					CHANNELS 3  Xrotation Yrotation Zrotation
					JOINT neck_1
					{
						OFFSET	0	71.8	-50.3
						CHANNELS 3  Xrotation Yrotation Zrotation
						JOINT neck_2
						{
							OFFSET	0	86.2	-25.8
							CHANNELS 3  Xrotation Yrotation Zrotation
							JOINT head_ee
							{
								OFFSET	0	179.8	-8.7
								CHANNELS 3  Xrotation Yrotation Zrotation
								End Site
								{
									OFFSET	1	0	0
								}
							}
						}
					}
					JOINT left_clavicle
					{
						OFFSET	-43.2	22.4	-70.8
						CHANNELS 3  Xrotation Yrotation Zrotation
						JOINT left_shoulder
						{
							OFFSET	-93.9	-5.79999	48.7
							CHANNELS 3  Xrotation Yrotation Zrotation
							JOINT left_elbow
							{
								OFFSET	-291.4	-30.8	15.2
								CHANNELS 3  Xrotation Yrotation Zrotation
								JOINT left_lowarm_twist
								{
									OFFSET	-110.7	-3.89999	13.6
									CHANNELS 3  Xrotation Yrotation Zrotation
									JOINT left_hand
									{
										OFFSET	-110.7	-3.89999	13.6
										CHANNELS 3  Xrotation Yrotation Zrotation
										JOINT left_ee
										{
											OFFSET	-80.8	-5.10001	12.1
											CHANNELS 3  Xrotation Yrotation Zrotation
											End Site
											{
												OFFSET	1	0	0
											}
										}
									}
								}
							}
						}
					}
					JOINT right_clavicle
					{
						OFFSET	43.2	22.4	-70.8
						CHANNELS 3  Xrotation Yrotation Zrotation
						JOINT right_shoulder
						{
							OFFSET	93.9	-5.79999	48.7
							CHANNELS 3  Xrotation Yrotation Zrotation
							JOINT right_elbow
							{
								OFFSET	291.4	-30.8	15.2
								CHANNELS 3  Xrotation Yrotation Zrotation
								JOINT right_lowarm_twist
								{
									OFFSET	110.7	-3.89999	13.6
									CHANNELS 3  Xrotation Yrotation Zrotation
									JOINT right_hand
									{
										OFFSET	110.7	-3.89999	13.6
										CHANNELS 3  Xrotation Yrotation Zrotation
										JOINT right_ee
										{
											OFFSET	80.8	-5.10001	12.1
											CHANNELS 3  Xrotation Yrotation Zrotation
											End Site
											{
												OFFSET	1	0	0
											}
										}
									}
								}
							}
						}
					}
				}
			}
		}
	}
	JOINT left_hip
	{
		OFFSET	-82.8	-127.5	0.300001
		CHANNELS 3  Xrotation Yrotation Zrotation
		JOINT left_knee
		{
			OFFSET	-28.2	-396.7	2.2
			CHANNELS 3  Xrotation Yrotation Zrotation
			JOINT left_ankle
			{
				OFFSET	-11.7	-411.3	35.4
				CHANNELS 3  Xrotation Yrotation Zrotation
				JOINT left_toes
				{
					OFFSET	0	-60	-88.6
					CHANNELS 3  Xrotation Yrotation Zrotation
					JOINT left_foot_ee
					{
						OFFSET	-22.5	-16.5	-42.2
						CHANNELS 3  Xrotation Yrotation Zrotation
						End Site
						{
							OFFSET	1	0	0
						}
					}
				}
			}
		}
	}
	JOINT right_hip
	{
		OFFSET	82.8	-127.5	0.300001
		CHANNELS 3  Xrotation Yrotation Zrotation
		JOINT right_knee
		{
			OFFSET	28.2	-396.7	2.2
			CHANNELS 3  Xrotation Yrotation Zrotation
			JOINT right_ankle
			{
				OFFSET	11.7	-411.3	35.4
				CHANNELS 3  Xrotation Yrotation Zrotation
				JOINT right_toes
				{
					OFFSET	0	-60	-88.6
					CHANNELS 3  Xrotation Yrotation Zrotation
					JOINT right_foot_ee
					{
						OFFSET	22.5	-16.5	-42.2
						CHANNELS 3  Xrotation Yrotation Zrotation
						End Site
						{
							OFFSET	1	0	0
						}
					}
				}
			}
		}
	}
}
MOTION
Frames: 15
Frame Time: 0.02
3651.25 697.022 -1489.34 -8.52979 67.1327 9.94516 1.2857 0.682412 0.213683 1.28548 0.667432 0.256675 1.2885 0.607235 0.377643 1.28891 0.659256 0.277 -10.6525 1.74267 -4.54223 -10.6064 6.31266 -3.96025 -0.0 0.0 -0.0 9.38159 26.8031 15.3241 -12.7667 -45.4943 60.288 1.85549 -42.5836 0.723171 -81.7579 -8.0444 5.25262 7.47213 35.1538 69.2972 -0.0 0.0 -0.0 8.63877 -5.38972 -16.6521 -38.965 34.7487 -55.5658 0.604076 16.6595 -0.0884464 -85.1412 8.46957 -5.18109 -10.5133 -23.8546 68.4391 0.0 0.0 0.0 -2.9185 -10.0234 0.979355 5.47249 -0.26372 -0.797842 35.6691 20.4259 -4.61773 -26.6878 0.0 0.0 -0.0 0.0 -0.0 19.4861 -2.33778 0.691824 -18.5822 -0.309817 -2.82229 14.4909 -2.77814 2.03281 22.055 -0.0 -0.0 0.0 0.0 0.0 
3648.19 698.999 -1495.67 -8.28 66.281 9.06557 1.26223 0.780114 0.230028 1.26193 0.763896 0.279205 1.26569 0.697578 0.418189 1.26624 0.754867 0.302768 -10.3634 2.33823 -2.21593 -10.3602 5.89229 -1.56014 -0.0 0.0 -0.0 8.61205 26.9545 14.2455 -12.263 -45.3302 60.9348 2.19522 -47.3926 0.963558 -84.077 -8.33636 5.20632 7.44547 35.0034 68.8793 -0.0 0.0 -0.0 8.72912 -4.81012 -16.8584 -39.3586 34.9867 -55.4281 0.595666 16.4402 -0.0860507 -85.2536 8.48361 -5.17828 -10.4646 -23.7359 67.8422 0.0 0.0 0.0 -2.78684 -10.1601 1.06778 5.20094 -0.248841 -0.758858 34.3403 20.4852 -4.4823 -27.6706 0.0 0.0 -0.0 0.0 -0.0 19.4764 -2.34952 0.408132 -18.5602 -0.309995 -2.81891 11.259 2.50864 1.61938 19.7974 -0.0 -0.0 0.0 0.0 0.0 
3645.65 702.566 -1501.23 -9.14496 66.3964 9.41968 1.2636 0.774337 0.245946 1.26332 0.757118 0.294723 1.26725 0.688008 0.432132 1.26777 0.74762 0.318047 -10.0342 2.85567 -0.923352 -10.0424 5.99928 -0.18788 -0.0 0.0 -0.0 8.42573 26.762 14.023 -11.9709 -45.0695 61.8732 2.27331 -48.3884 1.0215 -85.6794 -8.53674 5.16738 7.20243 34.4837 64.9788 -0.0 0.0 -0.0 8.87018 -4.22473 -17.1646 -39.915 35.5201 -55.6999 0.58517 16.1658 -0.0831043 -85.2517 8.48337 -5.17833 -10.4799 -23.7264 68.172 0.0 0.0 0.0 -3.10418 -10.2689 1.40541 5.46051 -0.26306 -0.796122 33.4578 20.5818 -4.39157 -28.228 0.0 0.0 -0.0 0.0 -0.0 19.596 -3.70638 0.701374 -18.3301 -0.311775 -2.78365 8.69517 4.42167 1.27098 19.6142 -0.0 -0.0 0.0 0.0 0.0 
3641.74 705.006 -1503.57 -9.7944 66.5995 9.75547 1.27785 0.696221 0.2395 1.27762 0.67957 0.283319 1.28102 0.614094 0.406173 1.28142 0.670534 0.304088 -9.34001 3.57871 -0.567916 -9.35057 7.10774 0.297162 -0.0 0.0 -0.0 8.93159 26.4764 14.7616 -11.6149 -40.0997 62.6181 2.36789 -49.5442 1.09284 -85.4022 -8.50216 5.17452 6.98292 34.0434 61.9883 -0.0 0.0 -0.0 8.9998 -3.92812 -17.4346 -39.9426 35.5176 -55.1669 0.543751 15.0755 -0.0719511 -85.1012 8.46457 -5.18209 -10.4386 -23.6516 67.5952 0.0 0.0 0.0 -3.06357 -7.93191 1.98211 6.81484 -0.339985 -0.989508 32.6709 22.6947 -4.35251 -29.3032 0.0 0.0 -0.0 0.0 -0.0 18.5714 -2.3195 1.38303 -17.5664 -0.316669 -2.66658 9.67287 6.57768 1.42159 19.9996 -0.0 -0.0 0.0 0.0 0.0 
3637.59 703.68 -1505.57 -9.86368 66.8506 9.42138 1.18556 0.692784 0.25079 1.18534 0.675422 0.294367 1.18885 0.60727 0.417219 1.18923 0.66554 0.316074 -9.41825 3.01672 0.0961083 -9.42601 5.59905 0.816936 -0.0 0.0 -0.0 8.70015 26.5863 14.4252 -11.8761 -42.1261 63.0611 2.40249 -49.9538 1.11925 -85.4968 -8.51397 5.1721 7.0484 34.1935 62.8321 -0.0 0.0 -0.0 8.81648 -3.39853 -17.1012 -40.0155 35.9728 -55.2103 0.568712 15.7339 -0.0785816 -85.1088 8.46553 -5.1819 -10.3772 -23.3784 67.2313 0.0 0.0 0.0 -3.06009 -6.79047 2.57848 6.48648 -0.320914 -0.942786 32.7398 21.0503 -4.32442 -28.9604 0.0 0.0 -0.0 0.0 -0.0 18.3026 -2.31514 1.70832 -17.4436 -0.31731 -2.64775 9.61607 10.2348 1.44017 18.6362 -0.0 -0.0 0.0 0.0 0.0 
3635.35 704.898 -1512.67 -10.7011 67.5751 10.0992 1.10619 0.559845 0.23065 1.10606 0.544033 0.265808 1.10861 0.483176 0.364922 1.10883 0.534745 0.284033 -10.0543 3.17445 -0.680814 -10.0655 6.43588 0.129427 -0.0 0.0 -0.0 8.61545 25.5458 14.4729 -12.161 -40.8827 62.9683 2.3793 -49.6801 1.10153 -85.3446 -8.49497 5.17598 6.87483 33.9124 60.6108 -0.0 0.0 -0.0 8.98198 -2.75609 -17.4592 -39.7755 36.5581 -55.3593 0.474178 13.219 -0.0549442 -85.1319 8.46841 -5.18132 -10.3271 -22.9431 67.5426 0.0 0.0 0.0 -3.12501 -8.99844 2.52879 6.577 -0.326144 -0.955676 33.3349 21.3057 -4.39346 -29.2598 0.0 0.0 -0.0 0.0 -0.0 18.1582 -2.74371 2.00797 -17.6542 -0.316185 -2.68005 9.62018 11.6681 1.45312 17.9647 -0.0 -0.0 0.0 0.0 0.0 
3629.11 704.297 -1514.93 -10.4413 67.5894 9.64407 1.08163 0.518829 0.165451 1.08151 0.507249 0.19813 1.08328 0.459879 0.291667 1.08351 0.500171 0.215376 -9.25538 3.28751 -0.567612 -9.26379 6.55943 0.222989 -0.0 0.0 -0.0 8.7669 26.3028 14.5632 -12.5889 -39.0611 63.2745 2.45931 -50.6118 1.16296 -85.3526 -8.49597 5.17578 6.6752 33.5882 58.2701 -0.0 0.0 -0.0 8.97882 -1.95639 -17.4892 -40.5467 37.0012 -54.6455 0.437104 12.2178 -0.0467818 -85.2581 8.48417 -5.17817 -10.2415 -22.3798 67.5242 0.0 0.0 0.0 -3.3689 -8.87583 2.76361 6.10764 -0.299244 -0.888748 32.652 22.2049 -4.33945 -29.775 0.0 0.0 -0.0 0.0 -0.0 17.5124 -2.80669 2.2932 -17.4629 -0.317212 -2.65072 11.3693 11.5985 1.70482 18.0465 -0.0 -0.0 0.0 0.0 0.0 
3627.73 704.063 -1517.42 -11.5839 67.9362 10.6234 1.07086 0.428293 0.128981 1.07077 0.419218 0.155973 1.07192 0.38151 0.233499 1.07209 0.413599 0.170315 -9.62528 3.20946 -0.646389 -9.6348 6.47256 0.147768 -0.0 0.0 -0.0 9.22984 26.3985 15.1878 -12.5084 -37.9448 63.3768 2.37738 -49.6572 1.10007 -85.035 -8.4563 5.18372 6.51459 33.3558 56.507 -0.0 0.0 -0.0 9.099 -1.08792 -17.767 -40.1268 37.6666 -54.0835 0.385802 10.8198 -0.0365365 -85.2458 8.48263 -5.17848 -10.2014 -22.0441 67.7067 0.0 0.0 0.0 -2.93034 -9.18311 2.27491 6.2101 -0.30507 -0.903377 33.223 22.5401 -4.40873 -29.9383 0.0 0.0 -0.0 0.0 -0.0 17.7027 -3.07723 2.5456 -17.9927 -0.31413 -2.73194 11.3401 13.2804 1.71911 17.7071 -0.0 -0.0 0.0 0.0 0.0 
3624.69 703.93 -1523.69 -11.8309 68.027 10.8462 1.01996 0.444229 0.140782 1.01987 0.43437 0.168765 1.02116 0.393707 0.249308 1.02133 0.42814 0.183999 -8.4763 2.91665 -0.71049 -8.47929 5.95194 -0.0452817 -0.0 0.0 -0.0 9.12487 26.4982 15.0247 -12.8241 -37.0911 63.4028 2.36644 -49.5269 1.09174 -84.8617 -8.43464 5.18796 6.37998 33.1988 55.0928 -0.0 0.0 -0.0 9.68995 -0.704518 -18.984 -39.5016 38.2044 -53.6105 0.303455 8.54905 -0.0226813 -85.171 8.47329 -5.18035 -10.1393 -21.6875 67.5165 0.0 0.0 0.0 -3.08035 -8.98956 2.15741 5.54222 -0.267571 -0.80784 34.604 23.6811 -4.58411 -29.7555 0.0 0.0 -0.0 0.0 -0.0 18.5587 -3.68206 2.55741 -19.8398 -0.29751 -3.01486 12.6261 14.1111 1.91468 18.1472 -0.0 -0.0 0.0 0.0 0.0 
3611.5 703.581 -1530.66 -10.2712 68.0072 9.39645 1.00824 0.560124 0.113887 1.00808 0.551741 0.149299 1.00952 0.512579 0.252928 1.00985 0.546091 0.1688 -7.50496 2.73369 -1.24815 -7.50046 5.98168 -0.668514 -0.0 0.0 -0.0 8.68983 26.4172 14.4384 -14.9519 -36.3055 63.5464 2.32596 -49.0384 1.06106 -85.2569 -8.48402 5.1782 6.27792 33.1949 54.0346 -0.0 0.0 -0.0 10.1511 0.186246 -19.9768 -41.3985 37.7236 -52.4817 0.292854 8.25456 -0.0211322 -85.1983 8.47671 -5.17967 -10.0951 -21.3425 67.6241 0.0 0.0 0.0 -3.25755 -9.98227 1.59827 2.27922 -0.100546 -0.335263 36.0843 23.4794 -4.73333 -29.6044 0.0 0.0 -0.0 0.0 -0.0 18.8031 -4.37949 2.87176 -24.7101 -0.210075 -3.75686 14.0531 14.7108 2.12683 18.8802 -0.0 -0.0 0.0 0.0 0.0 
3604.24 701.444 -1536.46 -10.2015 68.3387 9.19121 0.961193 0.60335 -0.0167216 0.960991 0.603191 0.0217064 0.961184 0.587557 0.138158 0.961663 0.602003 0.0436271 -7.17596 2.82884 -0.803053 -7.17333 5.83658 -0.221777 -0.0 0.0 -0.0 8.64862 26.5737 14.3567 -16.2769 -35.4957 63.0977 2.37507 -49.6298 1.09831 -85.4191 -8.50428 5.17409 6.20878 33.1075 53.3549 -0.0 0.0 -0.0 9.90156 0.380475 -19.4694 -41.7092 38.0411 -52.501 0.323277 9.0984 -0.0257219 -85.1774 8.4741 -5.18019 -10.0845 -21.1058 68.0734 0.0 0.0 0.0 -3.33261 -10.9004 1.12484 1.02622 -0.0436166 -0.151435 38.3226 20.4428 -4.88054 -29.1961 0.0 0.0 -0.0 0.0 -0.0 19.3008 -4.44594 2.95081 -27.2895 -0.138305 -4.14617 14.7261 13.9496 2.21015 19.5627 -0.0 -0.0 0.0 0.0 0.0 
3598.68 697.611 -1543.08 -8.00751 66.9122 7.26618 0.996195 0.903919 -0.173203 0.995748 0.913108 -0.115329 0.993781 0.918186 0.0632525 0.994949 0.916651 -0.082564 -6.25701 3.33567 0.472209 -6.25421 5.82684 1.11337 -0.0 0.0 -0.0 8.15082 26.3575 13.7088 -17.2473 -34.1456 63.5748 2.33347 -49.1298 1.06674 -85.5088 -8.51546 5.1718 6.07505 32.9565 52.0715 -0.0 0.0 -0.0 10.1488 2.10567 -20.0564 -40.48 38.3724 -53.1994 0.234111 6.61529 -0.0135301 -85.2244 8.47997 -5.17901 -9.9384 -19.9397 68.4058 0.0 0.0 0.0 -2.64476 -8.97942 0.717662 -4.20007 0.15 0.626987 41.7186 17.2842 -5.12441 -28.6381 0.0 0.0 -0.0 0.0 -0.0 18.7984 -8.03331 4.15628 -29.3417 -0.068716 -4.45343 15.8596 18.6371 2.4545 19.8576 -0.0 -0.0 0.0 0.0 0.0 
3590.36 695.795 -1550.25 -7.29893 67.9578 6.82815 1.01573 0.68282 -0.227966 1.01549 0.695942 -0.184053 1.01316 0.718372 -0.0463702 1.01384 0.702033 -0.159247 -7.58316 3.43825 0.732635 -7.58436 5.88184 1.45464 -0.0 0.0 -0.0 7.98007 27.2904 13.3449 -18.4236 -33.0094 63.0959 2.37942 -49.6816 1.10163 -85.7703 -8.54807 5.165 5.94421 32.999 50.8262 -0.0 0.0 -0.0 10.2032 3.10472 -20.2062 -39.5168 39.1525 -53.6171 0.246265 6.95544 -0.0149662 -85.2137 8.47863 -5.17928 -9.77084 -18.6791 68.438 0.0 0.0 0.0 -1.79002 -8.47673 0.446774 -9.85491 0.278628 1.48489 41.7173 15.5332 -5.09236 -27.5156 0.0 0.0 -0.0 0.0 -0.0 18.3404 -10.4759 4.64009 -30.7795 -0.0134225 -4.66714 19.1073 21.3864 2.9816 20.2972 -0.0 -0.0 0.0 0.0 0.0 
3583.85 694.281 -1554.42 -4.35292 68.8734 4.10255 0.863457 0.604534 -0.222408 0.863273 0.617462 -0.183488 0.861208 0.641416 -0.0592528 0.861746 0.624008 -0.159813 -7.87716 3.6416 1.43582 -7.87578 5.77476 2.20913 -0.0 0.0 -0.0 7.53423 27.7925 12.6879 -19.5547 -32.2586 63.1755 2.32989 -49.0863 1.06403 -86.0878 -8.58762 5.15655 5.98053 33.0999 51.1484 -0.0 0.0 -0.0 10.2064 4.26849 -20.2464 -37.9024 40.0298 -53.5157 0.266537 7.52171 -0.0175205 -85.1469 8.47028 -5.18095 -9.65176 -17.7702 68.4105 0.0 0.0 0.0 -0.295055 -8.30243 0.228801 -14.5075 0.320621 2.19733 42.0518 13.0471 -5.08405 -27.0351 0.0 0.0 -0.0 0.0 -0.0 17.108 -12.3431 4.97127 -31.8163 0.0297759 -4.82037 21.1543 23.0809 3.31843 20.5988 -0.0 -0.0 0.0 0.0 0.0 
3580.72 692.59 -1566.49 -4.54298 69.046 4.54329 1.01903 0.550107 -0.208272 1.01888 0.562245 -0.172844 1.01711 0.58502 -0.0612004 1.01756 0.568012 -0.152828 -8.99219 4.22435 3.09355 -8.97459 5.77866 4.02114 -0.0 0.0 -0.0 6.724 26.4608 11.7693 -20.2196 -30.6439 63.1485 2.31207 -48.8686 1.05059 -85.2877 -8.48787 5.17742 5.83215 32.6258 49.8529 -0.0 0.0 -0.0 10.4828 4.34831 -20.8395 -36.3038 41.8004 -54.0791 0.298674 8.41629 -0.0219759 -85.1938 8.47614 -5.17978 -9.6178 -17.3437 68.811 0.0 0.0 0.0 1.39157 -8.24127 -1.48125 -17.9707 0.314272 2.72857 41.7139 13.6987 -5.06403 -26.3791 0.0 0.0 -0.0 0.0 -0.0 17.1568 -13.651 4.69574 -33.7159 0.116107 -5.09906 20.4529 24.4074 3.26571 20.4866 -0.0 -0.0 0.0 0.0 0.0 
